<svg width="315" height="281" viewBox="0 0 315 281" fill="none" xmlns="http://www.w3.org/2000/svg">
<path d="M311.837 131.846C308.283 114.424 302.043 97.4176 294.624 81.7839C281.832 54.8122 260.875 32.4151 234.064 19.1196C168.275 -13.5074 120.799 0.0872065 95.0259 26.5966C69.253 53.1061 76.7135 98.6479 48.9059 118.36C21.0983 138.072 1.42951 146.909 0.0730431 182.934C-1.28343 218.96 16.3507 246.149 44.8365 254.986C73.3224 263.822 116.051 292.371 201.509 276.057C286.966 259.744 307.991 214.202 313.417 181.575C316.13 165.159 315.194 148.316 311.837 131.846Z" fill="#CBCBCB"/>
<path opacity="0.7" d="M311.837 131.846C308.283 114.424 302.043 97.4176 294.624 81.7839C281.832 54.8122 260.875 32.4151 234.064 19.1196C168.275 -13.5074 120.799 0.0872065 95.0259 26.5966C69.253 53.1061 76.7135 98.6479 48.9059 118.36C21.0983 138.072 1.42951 146.909 0.0730431 182.934C-1.28343 218.96 16.3507 246.149 44.8365 254.986C73.3224 263.822 116.051 292.371 201.509 276.057C286.966 259.744 307.991 214.202 313.417 181.575C316.13 165.159 315.194 148.316 311.837 131.846Z" fill="white"/>
<path d="M111.52 32.3879H105.375V59.6791H111.52V32.3879Z" fill="#C9C9C9" stroke="#263238" stroke-linecap="round" stroke-linejoin="round"/>
<path d="M111.52 36.4937H105.375V39.1582H111.52V36.4937Z" fill="white" stroke="#263238" stroke-linecap="round" stroke-linejoin="round"/>
<path d="M111.52 53.4255H105.375V56.0901H111.52V53.4255Z" fill="white" stroke="#263238" stroke-linecap="round" stroke-linejoin="round"/>
<path d="M118.689 32.3879H110.089V59.6791H118.689V32.3879Z" fill="#878787" stroke="#263238" stroke-linecap="round" stroke-linejoin="round"/>
<path d="M118.079 32.3879H111.934V59.6791H118.079V32.3879Z" fill="#C9C9C9" stroke="#263238" stroke-linecap="round" stroke-linejoin="round"/>
<path d="M118.079 36.4937H111.934V39.1582H118.079V36.4937Z" fill="white" stroke="#263238" stroke-linecap="round" stroke-linejoin="round"/>
<path d="M118.079 53.4255H111.934V56.0901H118.079V53.4255Z" fill="white" stroke="#263238" stroke-linecap="round" stroke-linejoin="round"/>
<path d="M125.241 32.3879H116.641V59.6791H125.241V32.3879Z" fill="#878787" stroke="#263238" stroke-linecap="round" stroke-linejoin="round"/>
<path d="M124.631 32.3879H118.486V59.6791H124.631V32.3879Z" fill="#C9C9C9" stroke="#263238" stroke-linecap="round" stroke-linejoin="round"/>
<path d="M124.631 36.4937H118.486V39.1582H124.631V36.4937Z" fill="white" stroke="#263238" stroke-linecap="round" stroke-linejoin="round"/>
<path d="M124.631 53.4255H118.486V56.0901H124.631V53.4255Z" fill="white" stroke="#263238" stroke-linecap="round" stroke-linejoin="round"/>
<path d="M131.793 32.3879H123.193V59.6791H131.793V32.3879Z" fill="#C9C9C9" stroke="#263238" stroke-linecap="round" stroke-linejoin="round"/>
<path d="M137.396 59.9578H151.828L155.667 56.4775H137.396V59.9578Z" fill="white" stroke="#263238" stroke-linecap="round" stroke-linejoin="round"/>
<path d="M154.032 60.1344L153.571 59.3392L137.097 59.3052L137.571 60.1344H154.032Z" fill="white" stroke="#263238" stroke-linecap="round" stroke-linejoin="round"/>
<path d="M129.039 32.9564L123.72 36.0393L137.352 59.6646L142.671 56.5817L129.039 32.9564Z" fill="#C9C9C9" stroke="#263238" stroke-linecap="round" stroke-linejoin="round"/>
<path d="M131.092 36.5008L125.772 39.5837L127.103 41.8904L132.423 38.8075L131.092 36.5008Z" fill="white" stroke="#263238" stroke-linecap="round" stroke-linejoin="round"/>
<path d="M139.554 51.1568L134.235 54.2397L135.566 56.5464L140.885 53.4635L139.554 51.1568Z" fill="white" stroke="#263238" stroke-linecap="round" stroke-linejoin="round"/>
<path d="M155.572 56.7153L142.529 56.6813L128.897 33.054L141.939 33.0879L155.572 56.7153Z" fill="#C9C9C9" stroke="#263238" stroke-linecap="round" stroke-linejoin="round"/>
<path d="M162.68 46.1388C162.68 46.1388 160.306 45.2891 159.627 41.5506C158.949 37.8121 157.762 32.5442 159.119 31.3546C160.475 30.1651 163.019 29.4854 163.358 31.8644C163.697 34.2435 163.188 38.8317 163.697 39.8513C164.206 40.8708 165.901 40.1911 165.901 38.1519C165.901 34.7941 164.545 31.3546 165.026 27.956C165.704 23.2591 170.452 22.7425 170.961 27.956C171.246 30.8381 171.327 33.7813 171.327 36.6769C171.327 37.8664 173.362 38.5462 173.192 35.6573C173.07 33.6181 174.549 31.2391 176.583 31.9188C178.618 32.5985 176.922 41.605 176.244 43.1343C175.566 44.6637 171.327 44.9492 171.327 44.9492V48.8577L166.24 49.0276L166.071 45.1192C165.035 45.7192 163.874 46.0683 162.68 46.1388Z" fill="#CBCBCB" stroke="#263238" stroke-linecap="round" stroke-linejoin="round"/>
<path d="M167.258 38.6887C167.319 39.5384 167.36 40.0482 167.36 40.0482" stroke="#263238" stroke-linecap="round" stroke-linejoin="round"/>
<path d="M167.597 25.5093C167.597 25.5093 166.484 26.2842 166.566 28.6088C166.62 30.0227 166.891 33.9379 167.102 36.7996" stroke="#263238" stroke-linecap="round" stroke-linejoin="round"/>
<path d="M169.509 33.5229L169.686 39.2123" stroke="#263238" stroke-linecap="round" stroke-linejoin="round"/>
<path d="M171.992 42.9102C171.599 42.9713 171.202 43.0053 170.805 43.0119" stroke="#263238" stroke-linecap="round" stroke-linejoin="round"/>
<path d="M175.532 33.353C175.141 34.0971 174.934 34.9248 174.929 35.7661C174.929 37.1255 175.017 40.9388 174.156 41.972C173.945 42.204 173.689 42.3892 173.403 42.5158" stroke="#263238" stroke-linecap="round" stroke-linejoin="round"/>
<path d="M160.815 41C161.019 42.022 161.508 42.9649 162.226 43.7189C162.65 44.0594 163.174 44.2516 163.718 44.2664C164.261 44.2811 164.795 44.1175 165.237 43.8005" stroke="#263238" stroke-linecap="round" stroke-linejoin="round"/>
<path d="M160.652 31.8035C160.652 31.8035 158.936 31.8035 159.533 34.8147C159.791 36.0858 160.028 37.6491 160.333 39.1241" stroke="#263238" stroke-linecap="round" stroke-linejoin="round"/>
<path d="M167.102 43.2637L167.447 46.9682" stroke="#263238" stroke-linecap="round" stroke-linejoin="round"/>
<path d="M175.905 47.3281L175.288 52.3989L174.868 55.8519L174.379 59.8691H162.178L161.69 55.8519L161.269 52.3989L160.652 47.3281H175.905Z" fill="white" stroke="#263238" stroke-linecap="round" stroke-linejoin="round"/>
<path d="M175.288 52.3992L174.868 55.8522H161.69L161.269 52.3992H175.288Z" fill="#CBCBCB" stroke="#263238" stroke-linecap="round" stroke-linejoin="round"/>
<path d="M182.606 59.8694H104.291V65.0693H182.606V59.8694Z" fill="white" stroke="#263238" stroke-linecap="round" stroke-linejoin="round"/>
<path d="M182.606 59.8694H164.552V65.0693H182.606V59.8694Z" fill="white" stroke="#263238" stroke-linecap="round" stroke-linejoin="round"/>
<path d="M162.795 65.0898C171.185 68.1894 169.672 74.0487 169.672 74.0487H177.614V65.0898H162.795Z" fill="#919191" stroke="#263238" stroke-linecap="round" stroke-linejoin="round"/>
<path d="M165.474 65.0898C173.857 68.1894 172.345 74.0487 172.345 74.0487H180.294V65.0898H165.474Z" fill="white" stroke="#263238" stroke-linecap="round" stroke-linejoin="round"/>
<path d="M109.045 65.0898C117.435 68.1894 115.922 74.0487 115.922 74.0487H123.864V65.0898H109.045Z" fill="#919191" stroke="#263238" stroke-linecap="round" stroke-linejoin="round"/>
<path d="M111.724 65.0898C120.107 68.1894 118.594 74.0487 118.594 74.0487H126.543V65.0898H111.724Z" fill="white" stroke="#263238" stroke-linecap="round" stroke-linejoin="round"/>
<path d="M291.741 33.3601H221.503V131.078H291.741V33.3601Z" fill="#919191" stroke="#263238" stroke-linecap="round" stroke-linejoin="round"/>
<path d="M288.696 37.6016H224.555V126.836H288.696V37.6016Z" fill="#CBCBCB"/>
<path opacity="0.5" d="M288.696 37.6016H224.555V126.836H288.696V37.6016Z" fill="white"/>
<path d="M238.655 120.06C236.936 122.689 234.763 124.99 232.239 126.857H288.695V37.6016H278.291L276.935 38.0298C266.761 41.2449 256.249 50.5504 250.287 67.4621" stroke="#263238" stroke-linecap="round" stroke-linejoin="round"/>
<path d="M249.297 70.4258C246.928 78.491 245.62 86.8314 245.404 95.2359C245.031 105.323 242.888 112.576 240.025 117.789" stroke="#263238" stroke-linecap="round" stroke-linejoin="round"/>
<path d="M282.422 60.2502C273.096 65.6881 262.238 74.8236 258.182 88.8329C256.005 96.3099 258.046 103.053 262.082 108.824" stroke="#263238" stroke-linecap="round" stroke-linejoin="round"/>
<path d="M264.266 111.638C269.861 118.204 277.83 123.37 284.28 126.843H288.696V56.9536C287.434 57.545 286.091 58.2111 284.694 58.9928" stroke="#263238" stroke-linecap="round" stroke-linejoin="round"/>
<path d="M235.217 60.8687C240.128 50.8359 240.643 42.8763 240.08 37.6016H224.569V78.4261C226.861 75.1566 229.669 70.7859 233.06 64.9267C233.271 64.5664 233.467 64.2469 233.664 63.8663" stroke="#263238" stroke-linecap="round" stroke-linejoin="round"/>
<path d="M241.294 99.5112C240.541 104.453 238.276 108.042 235.604 108.042C232.314 108.042 229.642 102.604 229.642 95.8747C229.642 89.1453 232.314 83.7075 235.604 83.7075C238.893 83.7075 241.565 89.1453 241.565 95.8747" stroke="#263238" stroke-linecap="round" stroke-linejoin="round"/>
<path d="M244.122 70.9018C244.122 73.4915 242.983 75.5987 241.565 75.5987C240.148 75.5987 239.015 73.4915 239.015 70.9018C239.015 68.312 240.155 66.2048 241.565 66.2048C242.976 66.2048 244.122 68.3052 244.122 70.9018Z" stroke="#263238" stroke-linecap="round" stroke-linejoin="round"/>
<path d="M276.664 90.7428C279.126 91.9187 280.733 93.9715 280.733 96.3029C280.733 99.9531 276.732 102.917 271.787 102.917C266.843 102.917 262.848 99.9531 262.848 96.3029C262.848 92.6528 266.85 89.6824 271.787 89.6824C272.575 89.6818 273.361 89.7592 274.134 89.9135" stroke="#263238" stroke-linecap="round" stroke-linejoin="round"/>
<path d="M275.558 96.303C275.558 97.8324 273.883 99.0763 271.808 99.0763C269.732 99.0763 268.057 97.8324 268.057 96.303C268.057 94.7736 269.739 93.5229 271.808 93.5229C273.876 93.5229 275.558 94.7669 275.558 96.303Z" stroke="#263238" stroke-linecap="round" stroke-linejoin="round"/>
<path d="M281.608 79.4389C281.608 81.5596 279.512 83.2793 276.921 83.2793C274.331 83.2793 272.235 81.5596 272.235 79.4389C272.235 77.3181 274.331 75.5984 276.921 75.5984C279.512 75.5984 281.608 77.3181 281.608 79.4389Z" stroke="#263238" stroke-linecap="round" stroke-linejoin="round"/>
<path d="M247.744 58.0955C249.508 58.0955 250.938 54.5592 250.938 50.197C250.938 45.8348 249.508 42.2986 247.744 42.2986C245.98 42.2986 244.549 45.8348 244.549 50.197C244.549 54.5592 245.98 58.0955 247.744 58.0955Z" stroke="#263238" stroke-linecap="round" stroke-linejoin="round"/>
<path d="M256.48 118.075C256.48 118.962 256.217 119.83 255.725 120.567C255.233 121.305 254.534 121.88 253.716 122.22C252.898 122.559 251.998 122.648 251.13 122.475C250.262 122.302 249.464 121.875 248.838 121.247C248.212 120.62 247.786 119.821 247.613 118.95C247.44 118.08 247.529 117.178 247.868 116.358C248.206 115.539 248.78 114.838 249.516 114.345C250.252 113.852 251.118 113.589 252.003 113.589C253.19 113.589 254.329 114.062 255.168 114.903C256.008 115.744 256.48 116.885 256.48 118.075Z" stroke="#263238" stroke-linecap="round" stroke-linejoin="round"/>
<path d="M277.349 51.475C277.35 52.0254 277.188 52.5638 276.884 53.0221C276.58 53.4803 276.147 53.8377 275.639 54.0489C275.132 54.2602 274.574 54.3158 274.035 54.2088C273.497 54.1017 273.002 53.8368 272.613 53.4476C272.225 53.0584 271.961 52.5624 271.854 52.0225C271.747 51.4825 271.802 50.923 272.013 50.4147C272.224 49.9065 272.581 49.4723 273.038 49.1674C273.495 48.8624 274.032 48.7003 274.582 48.7017C275.315 48.7035 276.018 48.9962 276.536 49.5159C277.055 50.0356 277.347 50.74 277.349 51.475Z" stroke="#263238" stroke-linecap="round" stroke-linejoin="round"/>
<path d="M259.884 71.1124C259.885 71.4085 259.799 71.6982 259.636 71.9451C259.473 72.1919 259.24 72.3846 258.968 72.4988C258.695 72.613 258.395 72.6436 258.105 72.5867C257.815 72.5298 257.549 72.3879 257.339 72.179C257.13 71.9702 256.987 71.7037 256.929 71.4135C256.871 71.1232 256.9 70.8222 257.013 70.5485C257.126 70.2749 257.317 70.0409 257.562 69.8763C257.808 69.7117 258.097 69.6238 258.392 69.6238C258.588 69.6229 258.782 69.6607 258.962 69.7351C259.143 69.8096 259.308 69.9191 259.447 70.0574C259.585 70.1957 259.695 70.3601 259.77 70.5412C259.845 70.7222 259.884 70.9163 259.884 71.1124V71.1124Z" stroke="#263238" stroke-linecap="round" stroke-linejoin="round"/>
<path d="M288.696 37.6016H224.555V126.836H288.696V37.6016Z" stroke="#263238" stroke-linecap="round" stroke-linejoin="round"/>
<path d="M183.867 164.847H166.443V171.42H183.867V164.847Z" fill="#263238" stroke="#263238" stroke-linecap="round" stroke-linejoin="round"/>
<path d="M207.246 165.839H137.896L141.179 111.964H210.535L207.246 165.839Z" fill="#919191" stroke="#263238" stroke-linecap="round" stroke-linejoin="round"/>
<path d="M205.259 165.839H135.91L139.192 111.964H208.542L205.259 165.839Z" fill="#263238" stroke="#263238" stroke-linecap="round" stroke-linejoin="round"/>
<path d="M201.59 162.842H139.945L142.861 114.955H204.506L201.59 162.842Z" fill="white" stroke="#263238" stroke-linecap="round" stroke-linejoin="round"/>
<path d="M183.657 155.705H141.783L144.028 118.802H185.909L183.657 155.705Z" fill="#919191" stroke="#263238" stroke-linecap="round" stroke-linejoin="round"/>
<path d="M158.305 139.853C158.305 139.853 149.583 143.313 149.529 144.244C149.474 145.176 147.765 155.705 147.765 155.705H173.701L171.517 143.578L161.92 139.582L158.305 139.853Z" fill="white" stroke="#263238" stroke-linecap="round" stroke-linejoin="round"/>
<path d="M158.563 137.719C157.906 137.892 157.297 138.211 156.779 138.65C156.101 139.33 155.273 141.58 155.273 141.58L155.239 144.244L158.678 142.382L162.171 142.151L165.44 145.216L165.86 140.554C165.86 140.554 165.359 137.889 164.3 137.753C163.242 137.617 158.563 137.719 158.563 137.719Z" fill="white" stroke="#263238" stroke-linecap="round" stroke-linejoin="round"/>
<path d="M158.454 135.19L158.305 139.853L160.36 143.184L163.758 139.717L164.287 135.456L158.454 135.19Z" fill="white" stroke="#263238" stroke-linecap="round" stroke-linejoin="round"/>
<path d="M166.837 129.739C166.593 133.647 164.002 138.385 161.16 138.385C158.318 138.385 156.304 133.627 156.541 129.739C156.779 125.851 159.254 122.663 162.117 122.663C164.979 122.663 167.074 125.837 166.837 129.739Z" fill="white" stroke="#263238" stroke-linecap="round" stroke-linejoin="round"/>
<path d="M156.494 130.256C156.494 130.256 155.578 127.863 155.198 129.726C154.819 131.588 156.69 133.587 156.69 133.587L156.494 130.256Z" fill="white" stroke="#263238" stroke-linecap="round" stroke-linejoin="round"/>
<path d="M166.837 129.739C166.837 129.739 169.082 128.794 168.424 130.793C168.257 131.358 167.966 131.879 167.572 132.316C167.177 132.754 166.69 133.097 166.146 133.321L166.837 129.739Z" fill="white" stroke="#263238" stroke-linecap="round" stroke-linejoin="round"/>
<path d="M160.882 130.255C160.9 130.015 160.868 129.774 160.788 129.548C160.708 129.321 160.581 129.113 160.417 128.938C160.252 128.763 160.053 128.624 159.832 128.53C159.611 128.436 159.372 128.39 159.132 128.393C158.632 128.406 158.155 128.603 157.791 128.947C157.427 129.29 157.202 129.756 157.159 130.255C157.141 130.496 157.173 130.737 157.253 130.964C157.333 131.192 157.459 131.4 157.624 131.575C157.788 131.751 157.987 131.891 158.209 131.985C158.43 132.08 158.668 132.127 158.908 132.125C159.409 132.111 159.888 131.913 160.252 131.568C160.616 131.223 160.841 130.756 160.882 130.255Z" fill="white" stroke="#263238" stroke-linecap="round" stroke-linejoin="round"/>
<path d="M165.399 130.256L167.427 129.725" stroke="#263238" stroke-linecap="round" stroke-linejoin="round"/>
<path d="M165.399 130.256C165.417 130.016 165.385 129.776 165.305 129.549C165.226 129.323 165.1 129.116 164.936 128.941C164.772 128.765 164.574 128.626 164.353 128.532C164.133 128.438 163.896 128.391 163.656 128.393C163.155 128.405 162.676 128.601 162.311 128.945C161.945 129.288 161.719 129.755 161.676 130.256C161.658 130.496 161.69 130.737 161.77 130.964C161.85 131.192 161.976 131.4 162.141 131.575C162.305 131.751 162.505 131.891 162.726 131.985C162.947 132.08 163.185 132.127 163.426 132.125C163.926 132.112 164.405 131.913 164.769 131.569C165.133 131.224 165.358 130.756 165.399 130.256Z" fill="white" stroke="#263238" stroke-linecap="round" stroke-linejoin="round"/>
<path d="M161.655 121.861C161.655 121.861 159.62 120.8 158.094 121.467C156.568 122.133 155.443 125.729 155.517 126.66C155.756 127.88 156.083 129.082 156.494 130.256L158.108 125.593L162.34 123.73L161.655 121.861Z" fill="#263238" stroke="#263238" stroke-linecap="round" stroke-linejoin="round"/>
<path d="M159.607 122.799C159.607 122.799 162.958 120.134 165.671 121.439C166.501 121.801 167.187 122.43 167.621 123.227C168.055 124.023 168.211 124.942 168.065 125.837C168.024 126.517 167.97 129.562 167.97 129.562L166.356 129.834L165.562 127.326C164.645 126.962 163.753 126.54 162.89 126.062C162.89 126.062 159.302 125.593 159.607 122.799Z" fill="#263238" stroke="#263238" stroke-linecap="round" stroke-linejoin="round"/>
<path d="M160.882 130.256L160.645 134.123H161.574" fill="white"/>
<path d="M160.882 130.256L160.645 134.123H161.574" stroke="#263238" stroke-linecap="round" stroke-linejoin="round"/>
<path d="M160.157 135.585H162.151" stroke="#263238" stroke-linecap="round" stroke-linejoin="round"/>
<path d="M160.36 143.184L159.621 155.304" stroke="#263238" stroke-linecap="round" stroke-linejoin="round"/>
<path d="M171.503 143.578C171.503 143.578 168.729 149.845 168.648 151.178C168.566 152.51 168.254 155.44 168.254 155.44" stroke="#263238" stroke-linecap="round" stroke-linejoin="round"/>
<path d="M149.528 144.245C149.528 144.245 152.289 149.044 152.648 149.682C153.008 150.321 152.567 155.413 152.567 155.413" stroke="#263238" stroke-linecap="round" stroke-linejoin="round"/>
<path d="M173.354 148.112L174.27 143.979L175.83 142.382L177.302 139.982H177.967L177.153 142.518L179.214 141.315L180.544 139.187L181.317 139.581L179.418 144.516L176.407 145.978L175.884 147.976L173.354 148.112Z" fill="white" stroke="#263238" stroke-linecap="round" stroke-linejoin="round"/>
<path d="M175.932 155.705L176.183 147.446L173.158 146.909L170.771 155.705H175.932Z" fill="white" stroke="#263238" stroke-linecap="round" stroke-linejoin="round"/>
<path d="M183.474 158.77H141.593L141.783 155.705H183.657L183.474 158.77Z" fill="white" stroke="#263238" stroke-linecap="round" stroke-linejoin="round"/>
<path d="M143.302 156.908H181.724" stroke="#263238" stroke-linecap="round" stroke-linejoin="round"/>
<path d="M201.658 128.651H187.564L188.161 118.925H202.255L201.658 128.651Z" fill="#CBCBCB" stroke="#263238" stroke-linecap="round" stroke-linejoin="round"/>
<path d="M201.658 128.651H187.564L187.666 127.054H201.759L201.658 128.651Z" fill="white" stroke="#263238" stroke-linecap="round" stroke-linejoin="round"/>
<path d="M197.107 123.221L193.444 121.025L193.18 125.416L197.107 123.221Z" fill="white" stroke="#263238" stroke-linecap="round" stroke-linejoin="round"/>
<path d="M200.742 143.707H186.648L187.238 133.987H201.332L200.742 143.707Z" fill="#CBCBCB" stroke="#263238" stroke-linecap="round" stroke-linejoin="round"/>
<path d="M200.742 143.707H186.648L186.75 142.11H200.837L200.742 143.707Z" fill="white" stroke="#263238" stroke-linecap="round" stroke-linejoin="round"/>
<path d="M196.191 138.283L192.528 136.088L192.264 140.479L196.191 138.283Z" fill="white" stroke="#263238" stroke-linecap="round" stroke-linejoin="round"/>
<path d="M199.819 158.77H185.732L186.322 149.043H200.416L199.819 158.77Z" fill="#CBCBCB" stroke="#263238" stroke-linecap="round" stroke-linejoin="round"/>
<path d="M199.819 158.77H185.732L185.827 157.173H199.921L199.819 158.77Z" fill="white" stroke="#263238" stroke-linecap="round" stroke-linejoin="round"/>
<path d="M195.268 153.339L191.613 151.144L191.341 155.535L195.268 153.339Z" fill="white" stroke="#263238" stroke-linecap="round" stroke-linejoin="round"/>
<path d="M187.604 130.256H201.291" stroke="#263238" stroke-linecap="round" stroke-linejoin="round"/>
<path d="M187.503 131.86H201.196" stroke="#263238" stroke-linecap="round" stroke-linejoin="round"/>
<path d="M186.675 145.448H200.369" stroke="#263238" stroke-linecap="round" stroke-linejoin="round"/>
<path d="M186.581 147.045H200.274" stroke="#263238" stroke-linecap="round" stroke-linejoin="round"/>
<path d="M180.606 171.42H170.31C170.31 170.391 170.718 169.404 171.444 168.676C172.171 167.948 173.156 167.539 174.183 167.539H176.719C177.746 167.539 178.732 167.948 179.458 168.676C180.184 169.404 180.592 170.391 180.592 171.42H180.606Z" fill="white" stroke="#263238" stroke-linecap="round" stroke-linejoin="round"/>
<path d="M165.406 169.306H115.067V171.42H165.406V169.306Z" fill="#919191" stroke="#263238" stroke-linecap="round" stroke-linejoin="round"/>
<path d="M165.392 169.306H152.743V171.42H165.392V169.306Z" fill="white" stroke="#263238" stroke-linecap="round" stroke-linejoin="round"/>
<path d="M94.4355 67.8088V27.6436" stroke="#263238" stroke-linecap="round" stroke-linejoin="round"/>
<path d="M94.4355 268.825V71.8057" stroke="#263238" stroke-linecap="round" stroke-linejoin="round"/>
<path d="M185.957 185.517L192.061 267.989C192.092 268.29 192.237 268.567 192.466 268.765C192.695 268.963 192.99 269.065 193.292 269.052C193.594 269.039 193.879 268.912 194.09 268.695C194.301 268.479 194.422 268.19 194.428 267.887L193.512 185.517H185.957Z" fill="#919191" stroke="#263238" stroke-linecap="round" stroke-linejoin="round"/>
<path d="M190.562 185.517L193.784 268.94C193.974 268.839 194.132 268.687 194.242 268.501C194.352 268.315 194.41 268.103 194.408 267.887L193.512 185.517H190.562Z" fill="white" stroke="#263238" stroke-linecap="round" stroke-linejoin="round"/>
<path d="M224.325 185.517L230.429 267.989C230.461 268.29 230.606 268.567 230.834 268.765C231.063 268.963 231.358 269.065 231.66 269.052C231.962 269.039 232.247 268.912 232.458 268.695C232.669 268.479 232.79 268.19 232.796 267.887L231.88 185.517H224.325Z" fill="#919191" stroke="#263238" stroke-linecap="round" stroke-linejoin="round"/>
<path d="M228.57 185.517L232.328 268.818C232.469 268.708 232.582 268.566 232.66 268.405C232.737 268.243 232.777 268.066 232.775 267.887L231.88 185.517H228.57Z" fill="white" stroke="#263238" stroke-linecap="round" stroke-linejoin="round"/>
<path d="M123.186 186.415L117.082 267.982C117.061 268.282 116.928 268.562 116.709 268.766C116.489 268.971 116.201 269.084 115.902 269.083C115.745 269.086 115.589 269.058 115.443 268.999C115.297 268.941 115.164 268.855 115.052 268.745C114.939 268.635 114.85 268.504 114.789 268.359C114.727 268.214 114.695 268.058 114.694 267.901L115.596 186.197L123.186 186.415Z" fill="#263238" stroke="#263238" stroke-linecap="round" stroke-linejoin="round"/>
<path d="M84.8522 186.415L78.748 267.982C78.7274 268.282 78.594 268.562 78.3749 268.766C78.1558 268.971 77.8673 269.084 77.5679 269.083C77.4115 269.082 77.2567 269.051 77.1126 268.99C76.9685 268.929 76.8379 268.84 76.7282 268.728C76.6185 268.616 76.532 268.484 76.4736 268.338C76.4151 268.193 76.386 268.037 76.3878 267.88L77.2898 186.177L84.8522 186.415Z" fill="#263238" stroke="#263238" stroke-linecap="round" stroke-linejoin="round"/>
<path d="M234.125 173.336H74.9907V186.183H234.125V173.336Z" fill="#919191" stroke="#263238" stroke-linecap="round" stroke-linejoin="round"/>
<path d="M234.125 173.336H188.521V186.183H234.125V173.336Z" fill="white" stroke="#263238" stroke-linecap="round" stroke-linejoin="round"/>
<path d="M234.125 175.376H74.9907V178.917H234.125V175.376Z" fill="#263238" stroke="#263238" stroke-linecap="round" stroke-linejoin="round"/>
<path d="M236.417 171.495H72.6982V175.79H236.417V171.495Z" fill="#919191" stroke="#263238" stroke-linecap="round" stroke-linejoin="round"/>
<path d="M236.41 171.495H191.45V175.79H236.41V171.495Z" fill="white" stroke="#263238" stroke-linecap="round" stroke-linejoin="round"/>
<path d="M188.141 91.8506H166.044C164.893 91.8506 163.789 92.3089 162.974 93.1247C162.16 93.9406 161.703 95.0471 161.703 96.2008V104.358C161.702 104.929 161.814 105.495 162.032 106.023C162.25 106.552 162.569 107.032 162.973 107.436C163.376 107.84 163.855 108.16 164.382 108.379C164.909 108.597 165.474 108.709 166.044 108.708H177.615L173.281 120.841L181.582 108.708H188.141C188.711 108.709 189.276 108.597 189.803 108.379C190.33 108.16 190.809 107.84 191.212 107.436C191.615 107.032 191.935 106.552 192.153 106.023C192.371 105.495 192.482 104.929 192.481 104.358V96.2008C192.481 95.0471 192.024 93.9406 191.21 93.1247C190.396 92.3089 189.292 91.8506 188.141 91.8506Z" fill="white" stroke="#263238" stroke-linecap="round" stroke-linejoin="round"/>
<path d="M171.171 102.135C172.044 102.135 172.751 101.426 172.751 100.551C172.751 99.6764 172.044 98.9673 171.171 98.9673C170.298 98.9673 169.591 99.6764 169.591 100.551C169.591 101.426 170.298 102.135 171.171 102.135Z" fill="#263238"/>
<path d="M177.092 102.135C177.965 102.135 178.672 101.426 178.672 100.551C178.672 99.6764 177.965 98.9673 177.092 98.9673C176.219 98.9673 175.512 99.6764 175.512 100.551C175.512 101.426 176.219 102.135 177.092 102.135Z" fill="#263238"/>
<path d="M184.587 100.551C184.587 100.238 184.494 99.931 184.32 99.6704C184.146 99.4098 183.899 99.2069 183.61 99.0872C183.321 98.9675 183.002 98.9366 182.696 98.9982C182.389 99.0599 182.107 99.2114 181.887 99.4336C181.666 99.6557 181.516 99.9386 181.456 100.246C181.396 100.554 181.428 100.873 181.549 101.162C181.669 101.451 181.873 101.698 182.134 101.871C182.394 102.044 182.701 102.136 183.013 102.135C183.221 102.135 183.426 102.094 183.617 102.014C183.808 101.934 183.982 101.818 184.128 101.671C184.275 101.523 184.39 101.349 184.469 101.157C184.548 100.964 184.588 100.759 184.587 100.551Z" fill="#263238"/>
<path d="M293.07 269.26H311.383" stroke="#263238" stroke-linecap="round" stroke-linejoin="round"/>
<path d="M4.14209 269.26H283.575" stroke="#263238" stroke-linecap="round" stroke-linejoin="round"/>
<path d="M111.738 149.139C109.75 145.74 103.904 132.655 103.904 132.655C104.08 131.257 104.366 129.875 104.759 128.522C105.24 127.163 106.454 123.044 106.21 122.187C105.966 121.331 102.446 119.754 102.086 119.632C101.727 119.509 102.568 117.443 101.232 116.953C99.8956 116.464 99.414 117.198 99.414 117.198L98.9053 120.597L97.3454 123.044C96.6958 122.549 96.0163 122.095 95.3107 121.684C94.2187 121.073 91.6686 120.828 91.5465 121.807C91.4244 122.785 93.5812 123.628 94.334 124.24C95.0869 124.852 96.0364 127.768 96.891 128.624C97.6675 129.474 98.3966 130.366 99.0749 131.296L99.5632 132.879C99.5632 132.879 101.225 148.914 101.422 152.904C101.618 156.894 102.215 167.45 103.409 169.041C104.603 170.632 104.806 171.638 108.156 170.441C111.507 169.245 112.131 167.648 112.904 164.059C113.677 160.47 113.725 152.524 111.738 149.139Z" fill="white" stroke="#263238" stroke-linecap="round" stroke-linejoin="round"/>
<path d="M112.931 164.079C113.724 160.496 113.724 152.523 111.737 149.125C111.52 148.751 111.256 148.268 110.957 147.697C106.461 146.385 102.188 148.526 102.188 148.526L101.103 149.002C101.245 150.668 101.353 152.061 101.394 152.911C101.598 156.894 102.188 167.457 103.381 169.047C104.575 170.638 104.779 171.644 108.129 170.448C111.48 169.251 112.131 167.668 112.931 164.079Z" fill="#CBCBCB" stroke="#263238" stroke-linecap="round" stroke-linejoin="round"/>
<path d="M97.2367 95.2495C97.7265 97.0526 97.9998 98.9078 98.0506 100.776C98.0506 103.433 97.2368 105.072 98.4644 105.887C99.692 106.703 100.709 106.71 100.499 108.348C100.419 109.252 100.061 110.109 99.4749 110.802C99.4749 110.802 99.068 119.19 98.661 120.012C98.2541 120.835 92.9435 119.808 91.7159 119.597C90.4883 119.387 87.0225 121.032 84.7708 116.532C82.5191 112.032 84.3639 105.276 88.4468 101.795C91.2552 99.454 94.1896 97.2688 97.2367 95.2495Z" fill="white" stroke="#263238" stroke-linecap="round" stroke-linejoin="round"/>
<path d="M98.0506 100.742C98.0506 100.742 96.9451 99.9124 96.3618 101.367" stroke="#263238" stroke-linecap="round" stroke-linejoin="round"/>
<path d="M97.0604 104.127C96.9017 104.951 96.953 105.802 97.2097 106.601" stroke="#263238" stroke-linecap="round" stroke-linejoin="round"/>
<path d="M99.0951 113.738C98.9139 113.796 98.7224 113.816 98.5332 113.795C98.3439 113.774 98.1612 113.714 97.9968 113.618C97.8323 113.522 97.69 113.392 97.5789 113.237C97.4678 113.082 97.3905 112.905 97.3521 112.719" stroke="#263238" stroke-linecap="round" stroke-linejoin="round"/>
<path d="M101.408 152.211C101.408 152.211 100.73 155.324 100.126 156.969C99.5225 158.614 88.6979 161.632 83.9842 162.257C80.879 162.646 77.7537 162.852 74.6245 162.876L74.9229 171.481C74.9229 171.481 84.052 171.665 84.6963 171.481C85.3406 171.297 100.709 164.412 100.709 164.412L107.343 163.542C107.343 163.542 110.13 162.862 110.239 160.694C110.347 158.525 107.885 152.36 106.766 151.402C105.647 150.443 103.287 147.901 101.869 149.465C100.452 151.028 101.408 152.211 101.408 152.211Z" fill="white" stroke="#263238" stroke-linecap="round" stroke-linejoin="round"/>
<path d="M81.054 167.661C81.054 163.943 82.0035 163.848 83.0887 162.373C80.2846 162.687 77.4662 162.854 74.6447 162.876L74.4209 170.774C74.4209 170.774 79.4195 171.236 82.4647 171.454C82.2138 171.841 81.054 170.053 81.054 167.661Z" fill="#CBCBCB" stroke="#263238" stroke-linecap="round" stroke-linejoin="round"/>
<path d="M110.53 184.382C106.918 180.315 102.328 177.242 97.1957 175.457L85.2859 180.548C84.361 178.273 83.1336 176.133 81.637 174.186L79.4124 171.467L80.8435 163.671C80.8435 163.671 89.4164 157.784 90.5219 155.235L90.5626 155.154C92.2853 157.825 99.7594 169.387 101.163 170.509C102.75 171.787 107.512 171.943 109.573 170.033C111.635 168.123 112.592 166.852 112.117 163.99C112.117 163.99 108.943 157.145 107.193 154.121C105.443 151.096 101.638 140.281 99.7323 136.937C98.3758 134.544 97.8129 132.859 96.8498 131.73C96.1812 130.576 95.3923 129.496 94.4963 128.508C92.5905 126.469 87.3478 125.959 86.2354 125.484C85.1231 125.008 84.9671 124.845 78.6189 122.941C72.2706 121.038 65.122 119.917 60.042 123.893C60.042 123.893 53.219 132.009 50.5467 145.373C47.8745 158.736 47.6846 172.263 47.3726 174.648C47.0606 177.034 44.3545 188.651 43.5609 195.333C42.7674 202.014 49.7261 208.723 54.0125 210.803C58.299 212.883 76.713 213.189 87.5105 210.803C98.308 208.417 115.454 197.596 115.454 197.596C115.454 197.596 116.085 190.908 110.53 184.382Z" fill="#CBCBCB" stroke="#263238" stroke-linecap="round" stroke-linejoin="round"/>
<path d="M82.4579 154.984L80.2808 154.909" stroke="#263238" stroke-linecap="round" stroke-linejoin="round"/>
<path d="M81.6372 151.51C84.687 152.54 87.6567 153.794 90.5221 155.263L84.9334 155.072" stroke="#263238" stroke-linecap="round" stroke-linejoin="round"/>
<path d="M111.134 155.528C111.76 156.514 112.146 157.634 112.26 158.797C112.26 160.299 112.511 162.311 111.887 161.686C111.263 161.061 111.005 158.919 111.005 158.919L111.134 155.528Z" fill="white" stroke="#263238" stroke-linecap="round" stroke-linejoin="round"/>
<path d="M107.376 153.774C107.376 153.774 109.723 152.496 110.768 154.032C111.812 155.568 111.534 158.634 110.768 160.15C110.001 161.666 109.126 160.218 109.235 158.872C109.343 157.526 107.376 153.774 107.376 153.774Z" fill="white" stroke="#263238" stroke-linecap="round" stroke-linejoin="round"/>
<path d="M106.495 152.143C106.495 152.143 108.848 150.865 109.886 152.401C110.924 153.937 110.645 156.996 109.886 158.519C109.126 160.041 108.244 158.587 108.353 157.241C108.462 155.895 106.495 152.143 106.495 152.143Z" fill="white" stroke="#263238" stroke-linecap="round" stroke-linejoin="round"/>
<path d="M105.416 150.382C105.416 150.382 107.769 149.104 108.807 150.64C109.845 152.177 109.574 155.242 108.807 156.758C108.041 158.274 107.166 156.826 107.274 155.48C107.383 154.134 105.416 150.382 105.416 150.382Z" fill="white" stroke="#263238" stroke-linecap="round" stroke-linejoin="round"/>
<path d="M99.4614 88.8667C99.5005 91.3096 98.8719 93.7167 97.6438 95.8272C94.1712 101.149 90.9089 100.531 89.505 104.834C88.101 109.136 86.0053 113.602 88.2435 116.09C90.4816 118.578 92.3129 117.11 92.3129 117.11C92.3129 117.11 93.7439 120.794 90.0679 124.478C86.3919 128.162 80.0639 126.728 78.4294 126.116C77.4001 125.718 76.4372 125.166 75.574 124.478C75.574 124.478 74.5499 127.346 69.4699 127.346C64.3899 127.346 58.6182 123.866 58.6182 117.517C58.6182 111.169 62.0839 106.88 62.9046 104.419C63.7253 101.958 61.4735 94.393 64.9393 89.6892C68.4051 84.9855 73.7564 81.5325 77.8258 81.5325C81.8952 81.5325 89.8373 83.7688 89.8712 83.7824C90.407 84.0747 93.8389 82.6744 94.7681 82.7356C98.1796 82.9259 99.4208 85.7332 99.4614 88.8667Z" fill="#263238" stroke="#263238" stroke-linecap="round" stroke-linejoin="round"/>
<path d="M86.2085 117.98C86.949 118.078 87.6994 118.078 88.4399 117.98" stroke="#919191" stroke-linecap="round" stroke-linejoin="round"/>
<path d="M96.5178 92.4355C96.1958 94.2576 95.5256 96.0002 94.5442 97.5675C91.37 102.564 87.7618 104.365 83.4415 109.123C80.6675 112.202 81.1897 115.274 83.4415 116.885" stroke="#919191" stroke-linecap="round" stroke-linejoin="round"/>
<path d="M96.5786 87.1267C96.7108 87.8762 96.7766 88.6359 96.7753 89.397" stroke="#919191" stroke-linecap="round" stroke-linejoin="round"/>
<path d="M92.3127 91.8916C92.3127 91.8916 91.6345 98.9268 88.6909 103.012C85.7474 107.097 79.8739 109.13 80.0841 113.453" stroke="#919191" stroke-linecap="round" stroke-linejoin="round"/>
<path d="M119.645 209.655C119.645 209.655 123.877 231.447 127.499 242.037C131.121 252.627 134.743 262.313 135.638 263.224C136.533 264.135 138.961 267.459 138.961 267.459C137.839 268.357 136.468 268.886 135.034 268.975C132.918 268.975 130.205 266.256 127.784 264.733C125.363 263.211 125.071 262.313 120.235 260.498C115.399 258.684 119.333 253.844 120.54 251.417C121.239 250.108 121.65 248.664 121.748 247.183C119.828 240.367 116.426 234.062 111.784 228.721C104.249 220.252 102.737 200.608 102.737 200.608L117.231 195.17L119.645 209.655Z" fill="white" stroke="#263238" stroke-linecap="round" stroke-linejoin="round"/>
<path d="M135.042 262.136L134.167 262.313C134.167 262.313 129.032 255.353 125.112 252.933C123.776 252.008 122.204 251.485 120.582 251.424C119.368 253.844 115.447 258.683 120.276 260.498C125.105 262.313 125.411 263.217 127.825 264.733C130.24 266.249 132.959 268.974 135.075 268.974C136.509 268.886 137.88 268.357 139.002 267.459C139.002 267.459 136.581 264.128 135.679 263.224C135.422 262.889 135.208 262.524 135.042 262.136Z" fill="#CBCBCB" stroke="#263238" stroke-linecap="round" stroke-linejoin="round"/>
<path d="M132.607 268.112C130.219 266.46 128.063 262.789 124.176 260.499C120.643 258.419 118.825 258.337 118.072 258.493C118.257 258.979 118.553 259.414 118.937 259.762C119.322 260.111 119.783 260.363 120.283 260.499C125.119 262.313 125.418 263.218 127.832 264.733C129.358 265.712 131.04 267.221 132.607 268.112Z" fill="#CBCBCB" stroke="#263238" stroke-linecap="round" stroke-linejoin="round"/>
<path d="M135.042 268.974C134.887 268.969 134.733 268.953 134.581 268.927C134.733 268.956 134.887 268.972 135.042 268.974Z" fill="#CBCBCB" stroke="#263238" stroke-linecap="round" stroke-linejoin="round"/>
<path d="M92.7331 176.817C92.7331 176.817 107.247 171.665 108.604 175.063C109.96 178.462 116.173 191.139 113.908 196.346C111.642 201.552 95.7173 181.391 93.452 180.956C91.1867 180.521 92.4686 178.339 92.7331 176.817Z" fill="white" stroke="#263238" stroke-linecap="round" stroke-linejoin="round"/>
<path d="M106.956 183.458C106.956 183.458 123.457 182.099 126.624 185.049C129.792 187.999 118.94 223.338 113.06 234.438C103.842 251.798 106.63 256.345 106.63 256.345C106.63 256.345 107.308 259.064 111.832 263.374C116.356 267.683 117.712 268.356 116.125 269.036C114.538 269.716 107.763 269.036 107.084 268.58C106.406 268.125 101.435 264.053 96.9109 262.694C92.3871 261.335 93.0653 260.424 95.1 256.345C97.1347 252.267 96.9109 255.666 99.1694 248.644C101.877 239.991 104.016 231.17 105.572 222.237C106.772 214.957 108.604 206.963 108.088 199.561L106.956 183.458Z" fill="white" stroke="#263238" stroke-linecap="round" stroke-linejoin="round"/>
<path d="M119.042 194.524C117.314 190.346 114.341 186.804 110.53 184.382C103.314 179.767 97.196 175.457 97.196 175.457L85.2862 180.548C85.2862 180.548 88.1891 185.483 73.2679 187.978C61.7786 189.895 51.2321 187.115 45.5417 183.764C44.7482 187.713 43.9207 192.104 43.507 195.319C42.7135 202.001 49.6993 208.682 53.9857 210.756C58.2722 212.829 92.8079 217.118 102.106 211.129C119.042 200.274 119.042 194.524 119.042 194.524Z" fill="#263238" stroke="#263238" stroke-linecap="round" stroke-linejoin="round"/>
<path d="M83.9364 184.294C82.3426 185.606 79.2362 187.013 73.2678 187.985C61.7785 189.902 51.232 187.122 45.5416 183.771C45.3381 184.783 45.1346 185.81 44.9312 186.863C48.831 189.215 57.0241 193.198 66.2616 192.063C77.2829 190.711 82.1798 187.693 83.9364 184.294Z" fill="#CBCBCB" stroke="#263238" stroke-linecap="round" stroke-linejoin="round"/>
<path d="M75.1331 198.854C74.604 199.533 74.0547 200.213 73.4985 200.893" stroke="white" stroke-linecap="round" stroke-linejoin="round"/>
<path d="M83.441 185.953C81.3537 189.799 79.025 193.509 76.4688 197.059" stroke="white" stroke-linecap="round" stroke-linejoin="round"/>
<path d="M78.47 190.255C78.47 190.255 74.4006 195.693 70.1074 198.867" stroke="white" stroke-linecap="round" stroke-linejoin="round"/>
<path d="M111.832 263.36C107.308 259.064 106.63 256.345 106.63 256.345C106.478 256.204 106.358 256.033 106.277 255.842C105.972 256.162 105.05 256.767 102.791 255.897C100.831 255.142 98.9727 253.858 97.0126 252.994C96.5446 253.83 96.0902 254.354 95.1 256.345C93.0653 260.424 92.3871 261.335 96.9109 262.694C101.435 264.054 106.406 268.132 107.084 268.581C107.763 269.029 114.545 269.716 116.125 269.036C117.706 268.356 116.356 267.663 111.832 263.36Z" fill="#CBCBCB" stroke="#263238" stroke-linecap="round" stroke-linejoin="round"/>
<path d="M115.997 196.828L123.688 192.07" stroke="#263238" stroke-linecap="round" stroke-linejoin="round"/>
<path d="M24.1162 153.747C24.1162 153.747 48.614 150.674 64.2677 155.106L66.6483 214.793H29.9151C29.9151 214.793 32.2822 182.73 24.1162 153.747Z" fill="#919191" stroke="#263238" stroke-linecap="round" stroke-linejoin="round"/>
<path d="M64.2677 155.106C48.614 150.674 24.1162 153.747 24.1162 153.747C26.7378 163.407 28.479 173.285 29.3183 183.261C42.9975 190.106 55.5262 199.05 66.4516 209.77L64.2677 155.106Z" fill="#757575" stroke="#263238" stroke-linecap="round" stroke-linejoin="round"/>
<path d="M110.462 270.62C110.185 270.621 109.914 270.536 109.686 270.378C109.459 270.22 109.284 269.996 109.187 269.736C103.761 255.081 102.405 217.037 102.324 215.426C102.311 215.065 102.442 214.714 102.687 214.45C102.933 214.187 103.273 214.031 103.633 214.019C103.992 214.006 104.342 214.137 104.606 214.383C104.869 214.629 105.024 214.97 105.037 215.331C105.037 215.725 106.447 254.544 111.731 268.784C111.856 269.122 111.842 269.496 111.691 269.824C111.541 270.152 111.268 270.406 110.93 270.531C110.781 270.591 110.623 270.621 110.462 270.62Z" fill="white" stroke="#263238" stroke-linecap="round" stroke-linejoin="round"/>
<path d="M80.9253 270.62C80.6493 270.619 80.38 270.534 80.1534 270.376C79.9268 270.219 79.7536 269.995 79.657 269.736C74.2311 255.081 72.8746 217.037 72.7865 215.426C72.7739 215.065 72.9047 214.714 73.1502 214.45C73.3957 214.187 73.7357 214.031 74.0955 214.019C74.4552 214.006 74.8053 214.137 75.0686 214.383C75.3318 214.629 75.4868 214.97 75.4994 215.331C75.4994 215.725 76.9101 254.544 82.2004 268.784C82.3253 269.122 82.3112 269.496 82.1611 269.824C82.0111 270.152 81.7373 270.406 81.4001 270.531C81.2488 270.591 81.0877 270.621 80.9253 270.62Z" fill="white" stroke="#263238" stroke-linecap="round" stroke-linejoin="round"/>
<path d="M110.096 214.766H29.271V212.047H107.397C108.116 212.047 108.806 212.334 109.315 212.844C109.824 213.354 110.11 214.045 110.11 214.766H110.096Z" fill="#919191" stroke="#263238" stroke-linecap="round" stroke-linejoin="round"/>
<path d="M110.089 214.107H29.271V216.805H110.089V214.107Z" fill="white" stroke="#263238" stroke-linecap="round" stroke-linejoin="round"/>
<path d="M63.6642 270.619C63.46 270.624 63.2575 270.582 63.0718 270.497C62.886 270.412 62.7218 270.286 62.5914 270.129C62.461 269.971 62.3678 269.786 62.3187 269.587C62.2695 269.389 62.2658 269.182 62.3077 268.981C69.9785 232.561 62.9859 155.976 62.891 155.208C62.8745 155.03 62.8933 154.85 62.9462 154.678C62.9991 154.507 63.0852 154.348 63.1995 154.21C63.3138 154.072 63.4541 153.958 63.6124 153.875C63.7707 153.791 63.9438 153.74 64.122 153.723C64.4817 153.69 64.84 153.801 65.1179 154.032C65.3958 154.264 65.5706 154.596 65.6039 154.957C65.6785 155.732 72.7254 232.718 64.9731 269.539C64.91 269.841 64.7459 270.113 64.508 270.309C64.27 270.506 63.9724 270.615 63.6642 270.619Z" fill="white" stroke="#263238" stroke-linecap="round" stroke-linejoin="round"/>
<path d="M21.6135 269.627C21.4871 269.629 21.3613 269.61 21.2405 269.573C20.8957 269.475 20.6037 269.244 20.4283 268.93C20.2529 268.617 20.2084 268.247 20.3045 267.901C37.9386 205.162 22.97 154.644 22.8208 154.141C22.7353 153.803 22.7829 153.445 22.9538 153.141C23.1246 152.836 23.4056 152.61 23.7385 152.508C24.0715 152.405 24.4309 152.435 24.7423 152.591C25.0538 152.748 25.2934 153.018 25.4116 153.346C25.5676 153.856 40.794 205.094 22.9157 268.635C22.836 268.92 22.6657 269.171 22.4307 269.35C22.1957 269.529 21.9088 269.626 21.6135 269.627Z" fill="white" stroke="#263238" stroke-linecap="round" stroke-linejoin="round"/>
<path d="M269.589 157.547C269.589 157.547 261.254 152.904 260.637 163.426C260.02 173.949 258.48 242.336 258.48 242.336" stroke="#263238" stroke-width="2" stroke-linecap="round" stroke-linejoin="round"/>
<path d="M256.31 164.351C256.31 164.351 263.092 179.515 260.02 241.411" stroke="#263238" stroke-width="2" stroke-linecap="round" stroke-linejoin="round"/>
<path d="M262.99 159.667C262.99 159.667 259.796 161.706 257.985 159.368C256.174 157.03 259.213 152.734 256.534 150.899C253.855 149.063 249.222 151.864 249.222 151.864C249.222 151.864 252.783 152.911 252.668 154.862C252.552 156.812 250.837 157.546 250.633 156.697C250.43 155.847 248.7 151.551 245.811 153.339C244.976 153.832 244.25 154.49 243.676 155.273C243.102 156.056 242.693 156.947 242.474 157.893C242.474 157.893 249.209 157.173 249.616 159.708C250.023 162.243 246.855 159.266 244.075 159.103C241.294 158.94 238.757 159.348 238.94 161.033C239.002 162.525 238.913 164.019 238.676 165.492C240.198 164.225 242.123 163.545 244.102 163.576C247.16 163.759 247.045 165.71 244.264 165.547C241.484 165.384 239.096 168.035 239.096 168.035C239.096 168.035 241.633 172.378 244.855 174.526C248.076 176.674 249.236 175.886 249.602 174.247C249.968 172.609 249.114 168.347 251.06 168.463C253.007 168.578 247.839 175.818 250.321 176.246C252.803 176.674 254.804 175.953 255.455 174.315L256.134 172.677C256.134 172.677 255.265 168.429 255.645 166.777C256.025 165.125 256.479 166.825 256.92 168.816C257.361 170.808 257.639 175.566 258.487 175.335C259.335 175.104 262.055 171.637 262.692 170.271C263.33 168.905 259.111 164.752 259.158 163.915C259.206 163.079 262.461 164.67 262.97 165.54C263.34 166.201 263.672 166.882 263.967 167.579C263.967 167.579 266.002 166.301 265.948 162.386C265.893 158.471 262.99 159.667 262.99 159.667Z" fill="#CBCBCB"/>
<path opacity="0.3" d="M262.99 159.667C262.99 159.667 259.796 161.706 257.985 159.368C256.174 157.03 259.213 152.734 256.534 150.899C253.855 149.063 249.222 151.864 249.222 151.864C249.222 151.864 252.783 152.911 252.668 154.862C252.552 156.812 250.837 157.546 250.633 156.697C250.43 155.847 248.7 151.551 245.811 153.339C244.976 153.832 244.25 154.49 243.676 155.273C243.102 156.056 242.693 156.947 242.474 157.893C242.474 157.893 249.209 157.173 249.616 159.708C250.023 162.243 246.855 159.266 244.075 159.103C241.294 158.94 238.757 159.348 238.94 161.033C239.002 162.525 238.913 164.019 238.676 165.492C240.198 164.225 242.123 163.545 244.102 163.576C247.16 163.759 247.045 165.71 244.264 165.547C241.484 165.384 239.096 168.035 239.096 168.035C239.096 168.035 241.633 172.378 244.855 174.526C248.076 176.674 249.236 175.886 249.602 174.247C249.968 172.609 249.114 168.347 251.06 168.463C253.007 168.578 247.839 175.818 250.321 176.246C252.803 176.674 254.804 175.953 255.455 174.315L256.134 172.677C256.134 172.677 255.265 168.429 255.645 166.777C256.025 165.125 256.479 166.825 256.92 168.816C257.361 170.808 257.639 175.566 258.487 175.335C259.335 175.104 262.055 171.637 262.692 170.271C263.33 168.905 259.111 164.752 259.158 163.915C259.206 163.079 262.461 164.67 262.97 165.54C263.34 166.201 263.672 166.882 263.967 167.579C263.967 167.579 266.002 166.301 265.948 162.386C265.893 158.471 262.99 159.667 262.99 159.667Z" fill="#263238"/>
<path d="M246.821 168.85C248.903 166.274 251.962 162.787 254.533 161.122" stroke="#263238" stroke-linecap="round" stroke-linejoin="round"/>
<path d="M244.414 171.984C244.414 171.984 244.943 171.243 245.811 170.128" stroke="#263238" stroke-linecap="round" stroke-linejoin="round"/>
<path d="M255.889 161.761C255.889 161.761 258.982 166.138 259.552 170.645" stroke="#263238" stroke-linecap="round" stroke-linejoin="round"/>
<path d="M252.376 164.351C252.376 164.351 253.245 163.841 252.919 169.415" stroke="#263238" stroke-linecap="round" stroke-linejoin="round"/>
<path d="M254.648 159.144C254.648 159.144 256.418 157.574 255.482 154.44" stroke="#263238" stroke-linecap="round" stroke-linejoin="round"/>
<path d="M252.261 161.829L251 159.518" stroke="#263238" stroke-linecap="round" stroke-linejoin="round"/>
<path d="M249.609 164.187C249.609 164.187 245.607 161.156 243.104 161.006" stroke="#263238" stroke-linecap="round" stroke-linejoin="round"/>
<path d="M274.358 151.409C274.358 151.409 274.229 156.004 270.648 156.228C267.067 156.452 264.855 150.471 261.193 151.912C257.531 153.353 257.178 159.905 257.178 159.905C257.178 159.905 260.65 157.043 262.522 158.485C264.394 159.926 263.96 162.155 262.95 161.802C261.939 161.448 256.5 160.231 256.31 164.351C256.234 165.525 256.396 166.702 256.786 167.812C257.177 168.922 257.788 169.941 258.582 170.808C258.582 170.808 262.455 163.555 265.276 164.874C268.097 166.193 262.95 167.348 260.888 170.026C258.826 172.704 257.497 175.525 259.321 176.497C260.853 177.448 262.285 178.553 263.594 179.794C263.594 179.794 263.106 176.001 265.371 173.058C267.636 170.115 269.501 171.556 267.446 174.234C265.391 176.912 266.409 181.119 266.409 181.119C266.409 181.119 272.472 181.534 276.813 179.76C281.153 177.986 281.181 176.3 279.783 174.798C278.386 173.296 273.557 171.27 274.995 169.36C276.433 167.45 280.15 177.605 282.273 175.403C284.395 173.201 285.033 170.706 283.839 168.932L282.646 167.165C282.646 167.165 277.817 165.125 276.419 163.63C275.022 162.135 277.037 162.828 279.322 163.739C281.608 164.65 286.552 167.62 286.905 166.607C287.258 165.594 285.637 160.49 284.714 158.94C283.792 157.39 276.752 158.77 275.951 158.151C275.151 157.533 278.956 155.351 280.17 155.433C281.08 155.508 281.986 155.633 282.883 155.806C282.883 155.806 282.991 152.897 279.044 150.28C275.097 147.663 274.358 151.409 274.358 151.409Z" fill="#CBCBCB"/>
<path opacity="0.2" d="M274.358 151.409C274.358 151.409 274.229 156.004 270.648 156.228C267.067 156.452 264.855 150.471 261.193 151.912C257.531 153.353 257.178 159.905 257.178 159.905C257.178 159.905 260.65 157.043 262.522 158.485C264.394 159.926 263.96 162.155 262.95 161.802C261.939 161.448 256.5 160.231 256.31 164.351C256.234 165.525 256.396 166.702 256.786 167.812C257.177 168.922 257.788 169.941 258.582 170.808C258.582 170.808 262.455 163.555 265.276 164.874C268.097 166.193 262.95 167.348 260.888 170.026C258.826 172.704 257.497 175.525 259.321 176.497C260.853 177.448 262.285 178.553 263.594 179.794C263.594 179.794 263.106 176.001 265.371 173.058C267.636 170.115 269.501 171.556 267.446 174.234C265.391 176.912 266.409 181.119 266.409 181.119C266.409 181.119 272.472 181.534 276.813 179.76C281.153 177.986 281.181 176.3 279.783 174.798C278.386 173.296 273.557 171.27 274.995 169.36C276.433 167.45 280.15 177.605 282.273 175.403C284.395 173.201 285.033 170.706 283.839 168.932L282.646 167.165C282.646 167.165 277.817 165.125 276.419 163.63C275.022 162.135 277.037 162.828 279.322 163.739C281.608 164.65 286.552 167.62 286.905 166.607C287.258 165.594 285.637 160.49 284.714 158.94C283.792 157.39 276.752 158.77 275.951 158.151C275.151 157.533 278.956 155.351 280.17 155.433C281.08 155.508 281.986 155.633 282.883 155.806C282.883 155.806 282.991 152.897 279.044 150.28C275.097 147.663 274.358 151.409 274.358 151.409Z" fill="#263238"/>
<path d="M272.512 173.887C271.366 170.02 269.955 164.582 270.05 160.884" stroke="#263238" stroke-linecap="round" stroke-linejoin="round"/>
<path d="M273.998 178.448C273.998 178.448 273.618 177.401 273.096 175.777" stroke="#263238" stroke-linecap="round" stroke-linejoin="round"/>
<path d="M271.611 159.96C271.611 159.96 278.088 159.837 282.978 162.339" stroke="#263238" stroke-linecap="round" stroke-linejoin="round"/>
<path d="M271.814 165.262C271.814 165.262 271.896 164.045 277.24 168.171" stroke="#263238" stroke-linecap="round" stroke-linejoin="round"/>
<path d="M268.179 159.436C268.179 159.436 267.813 156.595 264.048 155.399" stroke="#263238" stroke-linecap="round" stroke-linejoin="round"/>
<path d="M269.203 163.643L266.036 163.331" stroke="#263238" stroke-linecap="round" stroke-linejoin="round"/>
<path d="M269.753 167.912C269.753 167.912 263.995 169.863 262.143 172.276" stroke="#263238" stroke-linecap="round" stroke-linejoin="round"/>
<path d="M235.936 181.996C235.936 181.996 254.153 194.062 253.848 240.793" stroke="#263238" stroke-width="2" stroke-linecap="round" stroke-linejoin="round"/>
<path d="M258.399 178.808C258.399 178.808 257.816 184.097 253.651 184.015C249.487 183.934 247.547 176.824 243.152 178.142C238.757 179.461 237.76 186.979 237.76 186.979C237.76 186.979 242.047 184.002 244.068 185.85C246.089 187.699 245.377 190.221 244.244 189.718C243.112 189.215 236.947 187.291 236.343 192.029C236.147 193.378 236.226 194.752 236.576 196.069C236.925 197.386 237.538 198.618 238.378 199.69C238.378 199.69 243.532 191.689 246.659 193.484C249.786 195.278 243.742 196.114 241.111 199.01C238.479 201.906 236.696 205.032 238.69 206.324C240.371 207.567 241.921 208.979 243.315 210.538C243.315 210.538 243.105 206.12 245.994 202.932C248.883 199.744 250.911 201.573 248.28 204.489C245.648 207.405 246.435 212.333 246.435 212.333C246.435 212.333 253.401 213.386 258.575 211.755C263.75 210.124 263.934 208.18 262.462 206.317C260.99 204.455 255.612 201.654 257.45 199.629C259.288 197.603 262.618 209.634 265.276 207.289C267.935 204.944 268.898 202.137 267.691 199.975L266.484 197.814C266.484 197.814 261.105 195.02 259.633 193.151C258.162 191.281 260.42 192.287 262.97 193.552C265.521 194.816 270.953 198.711 271.448 197.583C271.943 196.454 270.56 190.418 269.644 188.522C268.729 186.625 260.475 187.57 259.606 186.782C258.738 185.993 263.343 183.838 264.734 184.063C265.769 184.236 266.795 184.462 267.806 184.742C267.806 184.742 268.2 181.398 263.893 178C259.586 174.601 258.399 178.808 258.399 178.808Z" fill="#CBCBCB"/>
<path opacity="0.3" d="M258.399 178.808C258.399 178.808 257.816 184.097 253.651 184.015C249.487 183.934 247.547 176.824 243.152 178.142C238.757 179.461 237.76 186.979 237.76 186.979C237.76 186.979 242.047 184.002 244.068 185.85C246.089 187.699 245.377 190.221 244.244 189.718C243.112 189.215 236.947 187.291 236.343 192.029C236.147 193.378 236.226 194.752 236.576 196.069C236.925 197.386 237.538 198.618 238.378 199.69C238.378 199.69 243.532 191.689 246.659 193.484C249.786 195.278 243.742 196.114 241.111 199.01C238.479 201.906 236.696 205.032 238.69 206.324C240.371 207.567 241.921 208.979 243.315 210.538C243.315 210.538 243.105 206.12 245.994 202.932C248.883 199.744 250.911 201.573 248.28 204.489C245.648 207.405 246.435 212.333 246.435 212.333C246.435 212.333 253.401 213.386 258.575 211.755C263.75 210.124 263.934 208.18 262.462 206.317C260.99 204.455 255.612 201.654 257.45 199.629C259.288 197.603 262.618 209.634 265.276 207.289C267.935 204.944 268.898 202.137 267.691 199.975L266.484 197.814C266.484 197.814 261.105 195.02 259.633 193.151C258.162 191.281 260.42 192.287 262.97 193.552C265.521 194.816 270.953 198.711 271.448 197.583C271.943 196.454 270.56 190.418 269.644 188.522C268.729 186.625 260.475 187.57 259.606 186.782C258.738 185.993 263.343 183.838 264.734 184.063C265.769 184.236 266.795 184.462 267.806 184.742C267.806 184.742 268.2 181.398 263.893 178C259.586 174.601 258.399 178.808 258.399 178.808Z" fill="#263238"/>
<path d="M254.153 204.57C253.176 200.03 252.084 193.606 252.532 189.331" stroke="#263238" stroke-linecap="round" stroke-linejoin="round"/>
<path d="M255.441 209.974C255.441 209.974 255.102 208.73 254.648 206.807" stroke="#263238" stroke-linecap="round" stroke-linejoin="round"/>
<path d="M254.411 188.413C254.411 188.413 261.871 188.889 267.297 192.233" stroke="#263238" stroke-linecap="round" stroke-linejoin="round"/>
<path d="M254.16 194.49C254.16 194.49 254.37 193.096 260.148 198.364" stroke="#263238" stroke-linecap="round" stroke-linejoin="round"/>
<path d="M250.511 187.489C250.511 187.489 250.355 184.172 246.129 182.431" stroke="#263238" stroke-linecap="round" stroke-linejoin="round"/>
<path d="M251.298 192.437L247.676 191.778" stroke="#263238" stroke-linecap="round" stroke-linejoin="round"/>
<path d="M251.535 197.413C251.535 197.413 244.705 199.126 242.338 201.729" stroke="#263238" stroke-linecap="round" stroke-linejoin="round"/>
<path d="M243.037 218.817C243.037 218.817 254.77 227.79 256.004 241.099L253.536 196.529" stroke="#263238" stroke-width="2" stroke-linecap="round" stroke-linejoin="round"/>
<path d="M271.441 212.319C256.004 209.532 256.004 241.099 256.004 241.099" stroke="#263238" stroke-width="2" stroke-linecap="round" stroke-linejoin="round"/>
<path d="M257.856 240.793C257.856 240.793 248.903 175.498 274.812 175.498" stroke="#263238" stroke-width="2" stroke-linecap="round" stroke-linejoin="round"/>
<path d="M265.561 210.443C263.452 208.064 258.969 208.064 256.337 214.141C253.705 220.218 256.073 219.164 256.073 219.164C256.073 219.164 261.078 217.573 264.245 216.52C267.413 215.466 271.624 212.822 271.889 214.406C272.153 215.99 269.78 217.573 266.877 218.104C263.974 218.634 256.337 220.748 257.124 222.359C257.911 223.97 259.762 228.701 259.762 228.701C262.014 226.783 264.391 225.019 266.877 223.419C270.309 221.305 272.418 222.094 270.573 224.473C268.728 226.852 263.452 229.489 264.51 232.663C265.568 235.838 271.889 239.794 271.889 239.794C271.889 239.794 272.683 233.194 274.527 231.08C276.372 228.966 276.372 231.345 275.843 235.042C275.578 236.617 275.402 238.206 275.314 239.801L282.693 242.445C283.9 240.603 285.221 238.839 286.647 237.163L288.004 235.804C288.004 235.804 282.205 230.787 281.94 227.647C281.676 224.507 285.895 227.647 287.21 228.177C288.526 228.707 290.635 232.405 290.635 232.405C290.635 232.405 291.958 226.328 292.222 224.214L292.487 222.1C292.487 222.1 286.946 219.986 284.836 219.986C282.727 219.986 281.676 221.57 281.676 219.463C281.676 217.356 283.785 216.024 286.159 216.289C288.307 216.649 290.423 217.178 292.487 217.872C292.487 217.872 294.067 216.554 293.538 212.591C293.009 208.628 291.693 208.628 288.533 209.682C285.372 210.735 283.256 213.121 280.882 213.121C278.509 213.121 279.831 210.212 281.411 209.423C282.992 208.635 286.946 207.044 287.739 206.779C288.533 206.514 283.521 202.816 280.882 202.286C278.244 201.756 274.833 203.646 275.083 206.249C275.579 211.762 267.67 212.842 265.561 210.443Z" fill="#CBCBCB"/>
<path d="M282.53 237.646C282.612 238.439 282.666 239.234 282.693 240.032" stroke="#263238" stroke-linecap="round" stroke-linejoin="round"/>
<path d="M277.233 218.682C279.557 223.913 281.231 229.41 282.218 235.05" stroke="#263238" stroke-linecap="round" stroke-linejoin="round"/>
<path d="M276.284 216.561C274.981 213.747 273.998 212.027 273.998 212.027C275.437 211.348 276.632 210.242 277.423 208.859C278.04 207.607 278.944 206.519 280.061 205.685" stroke="#263238" stroke-linecap="round" stroke-linejoin="round"/>
<path d="M264.774 220.999C264.774 220.999 274.27 217.036 274.27 217.825" stroke="#263238" stroke-linecap="round" stroke-linejoin="round"/>
<path d="M279.505 215.99C279.505 215.99 283.724 213.876 287.414 213.876" stroke="#263238" stroke-linecap="round" stroke-linejoin="round"/>
<path d="M277.952 222.359C276.123 223.866 274.444 225.548 272.94 227.382C271.402 229.2 270.157 231.248 269.25 233.452" stroke="#263238" stroke-linecap="round" stroke-linejoin="round"/>
<path d="M280.862 223.392C280.862 223.392 286.403 221.801 289.3 224.445" stroke="#263238" stroke-linecap="round" stroke-linejoin="round"/>
<path d="M290.879 187.693C288.01 185.993 284.836 185.953 283.276 184.158C281.716 182.364 284.775 181.439 286.41 182.119C288.044 182.799 291.836 184.749 292.548 185.171C293.26 185.592 292.772 179.386 291.442 177.014C290.113 174.642 286.471 173.31 284.66 175.226C280.828 179.257 274.846 173.969 275.253 170.815C275.66 167.661 272.723 164.269 266.436 166.254C260.149 168.239 262.482 169.347 262.482 169.347C262.482 169.347 266.958 172.1 269.834 173.799C272.709 175.498 277.457 176.96 276.433 178.197C275.409 179.434 272.662 178.68 270.363 176.837C268.063 174.995 261.464 170.591 260.786 172.229C260.108 173.867 257.734 178.38 257.734 178.38C260.656 178.829 263.545 179.472 266.381 180.304C270.22 181.514 271.007 183.628 268.009 183.791C265.011 183.954 259.558 181.698 257.836 184.573C256.113 187.448 257.3 194.83 257.3 194.83C257.3 194.83 262.794 191.105 265.595 191.112C268.396 191.119 266.605 192.682 263.472 194.708C262.113 195.539 260.802 196.447 259.545 197.426L262.393 204.747C264.572 204.451 266.767 204.293 268.966 204.271L270.824 204.407C270.824 204.407 270.824 196.726 273.021 194.449C275.219 192.172 275.612 197.44 276.08 198.786C276.548 200.132 275.144 204.149 275.144 204.149C275.144 204.149 280.57 201.165 282.347 199.975L284.117 198.793C284.117 198.793 282.083 193.212 280.692 191.622C279.302 190.031 277.43 190.262 279.017 188.903C280.604 187.543 282.991 188.223 284.348 190.221C285.485 192.081 286.472 194.029 287.298 196.047C287.298 196.047 289.333 196.38 291.971 193.382C294.61 190.384 293.748 189.392 290.879 187.693ZM265.941 196.149C263.831 195.088 268.837 192.974 268.837 192.974C270.688 192.716 268.043 197.209 265.941 196.149ZM269.488 186.286C268.593 185.837 271.285 184.926 271.285 184.926C275.178 185.654 270.383 186.734 269.481 186.286H269.488Z" fill="#CBCBCB"/>
<path d="M265.873 201.532C265.33 202.11 264.761 202.674 264.184 203.217" stroke="#263238" stroke-linecap="round" stroke-linejoin="round"/>
<path d="M276.69 185.089C274.268 190.273 271.218 195.138 267.609 199.574" stroke="#263238" stroke-linecap="round" stroke-linejoin="round"/>
<path d="M277.667 182.982C278.936 180.148 279.58 178.278 279.58 178.278C281.038 178.919 282.656 179.1 284.219 178.795C285.565 178.438 286.976 178.408 288.336 178.707" stroke="#263238" stroke-linecap="round" stroke-linejoin="round"/>
<path d="M275.375 182.289C275.972 181.765 266.768 177.184 266.768 177.184" stroke="#263238" stroke-linecap="round" stroke-linejoin="round"/>
<path d="M280.224 185.062C280.224 185.062 284.585 186.87 287.007 189.664" stroke="#263238" stroke-linecap="round" stroke-linejoin="round"/>
<path d="M274.412 188.026C272.078 187.629 269.711 187.46 267.345 187.523C264.964 187.552 262.603 187.954 260.345 188.712" stroke="#263238" stroke-linecap="round" stroke-linejoin="round"/>
<path d="M275.517 190.915C275.517 190.915 280.339 194.062 280.265 197.991" stroke="#263238" stroke-linecap="round" stroke-linejoin="round"/>
<path d="M249.914 224.296C247.608 222.937 245.051 222.903 243.81 221.455C242.569 220.007 245.01 219.28 246.326 219.823C247.642 220.367 250.694 221.944 251.27 222.284C251.847 222.624 251.447 217.621 250.375 215.738C249.303 213.855 246.373 212.761 244.915 214.297C241.829 217.546 237.014 213.284 237.346 210.749C237.678 208.214 235.311 205.481 230.231 207.079C225.151 208.676 227.051 209.566 227.051 209.566C227.051 209.566 230.652 211.782 232.965 213.149C235.278 214.515 239.103 215.698 238.275 216.69C237.448 217.682 235.244 217.084 233.392 215.596C231.54 214.107 226.23 210.566 225.687 211.884C225.145 213.203 223.232 216.833 223.232 216.833C225.583 217.196 227.908 217.714 230.191 218.382C233.277 219.354 233.907 221.054 231.493 221.183C229.078 221.312 224.711 219.497 223.354 221.815C221.998 224.133 222.92 230.074 222.92 230.074C222.92 230.074 227.342 227.069 229.594 227.076C231.846 227.083 230.408 228.34 227.892 229.972C226.798 230.641 225.742 231.372 224.731 232.161L227.017 238.047C228.77 237.811 230.537 237.686 232.307 237.673L233.806 237.775C233.806 237.775 233.806 231.596 235.576 229.761C237.346 227.926 237.658 232.167 238.031 233.255C238.404 234.342 237.278 237.571 237.278 237.571C237.278 237.571 241.66 235.165 243.077 234.213L244.502 233.255C244.502 233.255 242.86 228.769 241.748 227.484C240.636 226.199 239.116 226.396 240.391 225.282C241.666 224.167 243.586 224.752 244.678 226.335C245.594 227.833 246.39 229.402 247.058 231.025C247.058 231.025 248.693 231.291 250.816 228.884C252.939 226.478 252.227 225.669 249.914 224.296ZM229.838 231.093C228.142 230.244 232.171 228.544 232.171 228.544C233.657 228.34 231.534 231.957 229.838 231.1V231.093ZM232.707 223.168C231.981 222.801 234.152 222.08 234.152 222.08C237.278 222.685 233.419 223.528 232.707 223.168Z" fill="#CBCBCB"/>
<path d="M229.797 235.437C229.357 235.899 228.902 236.354 228.441 236.796" stroke="#263238" stroke-linecap="round" stroke-linejoin="round"/>
<path d="M238.499 222.202C236.552 226.374 234.098 230.289 231.195 233.86" stroke="#263238" stroke-linecap="round" stroke-linejoin="round"/>
<path d="M239.286 220.503C240.303 218.226 240.826 216.724 240.826 216.724C241.998 217.238 243.299 217.383 244.556 217.138C245.638 216.851 246.773 216.828 247.866 217.07" stroke="#263238" stroke-linecap="round" stroke-linejoin="round"/>
<path d="M230.51 215.84C230.51 215.84 237.923 219.531 237.441 219.918" stroke="#263238" stroke-linecap="round" stroke-linejoin="round"/>
<path d="M241.341 222.182C241.341 222.182 244.847 223.637 246.767 225.886" stroke="#263238" stroke-linecap="round" stroke-linejoin="round"/>
<path d="M236.662 224.568C234.785 224.249 232.881 224.115 230.978 224.167C229.063 224.185 227.163 224.509 225.349 225.125" stroke="#263238" stroke-linecap="round" stroke-linejoin="round"/>
<path d="M237.557 226.893C237.557 226.893 241.436 229.428 241.362 232.582" stroke="#263238" stroke-linecap="round" stroke-linejoin="round"/>
<path d="M240.5 180.671C240.5 180.671 237.597 182.785 235.753 180.671C233.908 178.557 236.546 174.329 233.908 172.745C231.269 171.162 227.058 174.064 227.058 174.064C227.058 174.064 230.483 174.859 230.483 176.708C230.483 178.557 228.902 179.352 228.638 178.557C228.373 177.762 226.529 173.799 223.89 175.655C223.13 176.167 222.482 176.829 221.984 177.6C221.486 178.372 221.15 179.236 220.994 180.141C220.994 180.141 227.315 179.087 227.844 181.466C228.373 183.845 225.213 181.201 222.574 181.201C219.936 181.201 217.562 181.731 217.827 183.315C217.97 184.721 217.97 186.137 217.827 187.543C219.192 186.262 220.97 185.512 222.839 185.429C225.735 185.429 225.735 187.278 223.104 187.278C220.472 187.278 218.356 189.922 218.356 189.922C218.356 189.922 220.994 193.885 224.155 195.734C227.315 197.583 228.373 196.787 228.638 195.204C228.902 193.62 227.844 189.657 229.689 189.657C231.534 189.657 227.058 196.787 229.425 197.052C231.792 197.317 233.643 196.522 234.172 194.938L234.701 193.355C234.701 193.355 233.643 189.392 233.908 187.808C234.172 186.224 234.701 187.808 235.224 189.657C235.746 191.506 236.282 195.992 237.075 195.734C237.869 195.475 240.236 192.029 240.765 190.711C241.294 189.392 237.075 185.694 237.075 184.899C237.075 184.104 240.236 185.429 240.765 186.218C241.294 187.006 241.816 188.066 241.816 188.066C241.816 188.066 243.661 186.748 243.396 183.05C243.132 179.352 240.5 180.671 240.5 180.671Z" fill="#CBCBCB"/>
<path d="M225.729 190.255C227.553 187.706 230.259 184.239 232.592 182.52" stroke="#263238" stroke-linecap="round" stroke-linejoin="round"/>
<path d="M223.626 193.355C223.626 193.355 224.094 192.621 224.847 191.52" stroke="#263238" stroke-linecap="round" stroke-linejoin="round"/>
<path d="M233.908 183.05C233.908 183.05 237.075 187.013 237.862 191.241" stroke="#263238" stroke-linecap="round" stroke-linejoin="round"/>
<path d="M230.747 185.694C230.747 185.694 231.534 185.164 231.534 190.452" stroke="#263238" stroke-linecap="round" stroke-linejoin="round"/>
<path d="M232.592 180.671C232.592 180.671 234.172 179.087 233.121 176.178" stroke="#263238" stroke-linecap="round" stroke-linejoin="round"/>
<path d="M230.482 183.315L229.167 181.201" stroke="#263238" stroke-linecap="round" stroke-linejoin="round"/>
<path d="M228.109 185.694C228.109 185.694 224.155 183.05 221.781 183.05" stroke="#263238" stroke-linecap="round" stroke-linejoin="round"/>
<path d="M267.121 239.862H246.74V269.26H267.121V239.862Z" fill="#263238" stroke="#263238" stroke-width="2" stroke-linecap="round" stroke-linejoin="round"/>
</svg>
